<svg width="48" height="48" viewBox="0 0 48 48" fill="none" xmlns="http://www.w3.org/2000/svg">
<path d="M21 4.04145C22.8564 2.96966 25.1436 2.96966 27 4.04145L39.7846 11.4226C41.641 12.4944 42.7846 14.4752 42.7846 16.6188V31.3812C42.7846 33.5248 41.641 35.5056 39.7846 36.5774L27 43.9585C25.1436 45.0303 22.8564 45.0303 21 43.9585L8.21539 36.5774C6.35898 35.5056 5.21539 33.5248 5.21539 31.3812V16.6188C5.21539 14.4752 6.35898 12.4944 8.21539 11.4226L21 4.04145Z" stroke="black" stroke-width="4"/>
<rect x="14" y="17" width="4" height="15" rx="2" fill="black"/>
<rect x="22" y="24" width="4" height="4" rx="2" fill="black"/>
<rect x="30" y="17" width="4" height="15" rx="2" fill="black"/>
</svg>
