<svg width="64" height="64" viewBox="0 0 64 64" fill="none" xmlns="http://www.w3.org/2000/svg">
<g filter="url(#filter0_d_209_49)">
<path d="M29 12.0415C30.8564 10.9697 33.1436 10.9697 35 12.0415L47.7846 19.4226C49.641 20.4944 50.7846 22.4752 50.7846 24.6188V39.3812C50.7846 41.5248 49.641 43.5056 47.7846 44.5774L35 51.9585C33.1436 53.0303 30.8564 53.0303 29 51.9585L16.2154 44.5774C14.359 43.5056 13.2154 41.5248 13.2154 39.3812V24.6188C13.2154 22.4752 14.359 20.4944 16.2154 19.4226L29 12.0415Z" stroke="black" stroke-width="4"/>
<rect x="22" y="25" width="4" height="15" rx="2" fill="black"/>
<rect x="30" y="32" width="4" height="4" rx="2" fill="black"/>
<rect x="38" y="25" width="4" height="15" rx="2" fill="black"/>
</g>
<defs>
<filter id="filter0_d_209_49" x="7.21539" y="9.23761" width="49.5692" height="53.5248" filterUnits="userSpaceOnUse" color-interpolation-filters="sRGB">
<feFlood flood-opacity="0" result="BackgroundImageFix"/>
<feColorMatrix in="SourceAlpha" type="matrix" values="0 0 0 0 0 0 0 0 0 0 0 0 0 0 0 0 0 0 127 0" result="hardAlpha"/>
<feOffset dy="4"/>
<feGaussianBlur stdDeviation="2"/>
<feComposite in2="hardAlpha" operator="out"/>
<feColorMatrix type="matrix" values="0 0 0 0 0 0 0 0 0 0 0 0 0 0 0 0 0 0 0.25 0"/>
<feBlend mode="normal" in2="BackgroundImageFix" result="effect1_dropShadow_209_49"/>
<feBlend mode="normal" in="SourceGraphic" in2="effect1_dropShadow_209_49" result="shape"/>
</filter>
</defs>
</svg>
